<?xml version="1.0" encoding="UTF-8"?>
<svg xmlns="http://www.w3.org/2000/svg" xmlns:xlink="http://www.w3.org/1999/xlink" width="1000px" height="320px" viewBox="0 0 1000 320" version="1.1">
<g id="surface1">
<path style=" stroke:none;fill-rule:nonzero;fill:rgb(100%,100%,100%);fill-opacity:1;" d="M 349.484375 318.53125 C 336.914062 318.53125 324.105469 310.699219 316.089844 295.351562 L 316.089844 378.273438 L 290.90625 378.273438 L 290.90625 173.570312 L 313.675781 173.570312 L 314.546875 196.085938 C 322.359375 178.785156 336.226562 169.644531 349.460938 169.644531 C 374.839844 169.644531 393.53125 201.648438 393.53125 244.085938 C 393.53125 286.523438 374.863281 318.550781 349.484375 318.53125 Z M 341.683594 197.742188 C 326.933594 197.742188 315.015625 215.046875 315.015625 244.105469 C 315.015625 273.164062 326.933594 290.503906 341.683594 290.503906 C 356.441406 290.503906 368.363281 273.203125 368.363281 244.140625 C 368.363281 215.082031 356.441406 197.742188 341.683594 197.742188 Z M 341.683594 197.742188 "/>
<path style=" stroke:none;fill-rule:nonzero;fill:rgb(100%,100%,100%);fill-opacity:1;" d="M 488.4375 314.644531 L 487.574219 292.128906 C 479.761719 309.429688 465.878906 318.570312 452.648438 318.550781 C 427.269531 318.550781 408.574219 286.5625 408.574219 244.125 C 408.574219 201.683594 427.230469 169.683594 452.648438 169.695312 C 465.878906 169.695312 479.761719 178.910156 487.574219 196.140625 L 488.4375 173.625 L 511.257812 173.625 L 511.257812 314.644531 Z M 460.46875 197.765625 C 445.71875 197.765625 433.792969 215.0625 433.78125 244.125 C 433.769531 273.183594 445.703125 290.503906 460.453125 290.503906 C 475.203125 290.503906 487.144531 273.203125 487.144531 244.140625 C 487.144531 215.082031 475.21875 197.765625 460.46875 197.765625 Z M 460.46875 197.765625 "/>
<path style=" stroke:none;fill-rule:nonzero;fill:rgb(100%,100%,100%);fill-opacity:1;" d="M 599.238281 314.664062 L 599.238281 236.644531 C 599.238281 209.222656 592.960938 200.082031 581.464844 200.082031 C 569.527344 200.082031 556.515625 216.390625 556.515625 235.980469 L 556.515625 314.664062 L 531.347656 314.664062 L 531.347656 173.625 L 554.351562 173.625 L 555.4375 199.75 C 561.726562 181.789062 575.820312 169.71875 590.140625 169.71875 C 615.078125 169.71875 624.417969 195.84375 624.417969 230.765625 L 624.417969 314.683594 Z M 599.238281 314.664062 "/>
<path style=" stroke:none;fill-rule:nonzero;fill:rgb(100%,100%,100%);fill-opacity:1;" d="M 716.636719 314.695312 L 715.765625 292.164062 C 707.960938 309.46875 694.078125 318.601562 680.855469 318.601562 C 655.476562 318.601562 636.78125 286.597656 636.78125 244.160156 C 636.78125 201.722656 655.4375 169.734375 680.855469 169.734375 C 693.429688 169.734375 706.21875 177.585938 714.25 192.914062 L 714.25 118.824219 L 739.417969 118.824219 L 739.417969 314.695312 Z M 688.667969 197.816406 C 673.976562 197.816406 661.988281 215.121094 661.988281 244.160156 C 661.988281 273.203125 673.910156 290.503906 688.667969 290.503906 C 703.414062 290.503906 715.335938 273.222656 715.335938 244.160156 C 715.335938 215.101562 703.453125 197.816406 688.667969 197.816406 Z M 688.667969 197.816406 "/>
<path style=" stroke:none;fill-rule:nonzero;fill:rgb(100%,100%,100%);fill-opacity:1;" d="M 833.949219 314.71875 L 833.078125 292.203125 C 825.269531 309.5 811.386719 318.625 798.15625 318.625 C 772.777344 318.625 754.082031 286.636719 754.082031 244.179688 C 754.082031 201.722656 772.738281 169.757812 798.15625 169.757812 C 811.386719 169.757812 825.269531 178.964844 833.078125 196.214844 L 833.949219 173.675781 L 856.71875 173.675781 L 856.71875 314.695312 Z M 805.976562 197.835938 C 791.285156 197.835938 779.300781 215.136719 779.289062 244.199219 C 779.277344 273.257812 791.226562 290.503906 805.960938 290.503906 C 820.703125 290.503906 832.652344 273.203125 832.652344 244.140625 C 832.652344 215.082031 820.726562 197.835938 805.976562 197.835938 Z M 805.976562 197.835938 "/>
<path style=" stroke:none;fill-rule:nonzero;fill:rgb(100%,100%,100%);fill-opacity:1;" d="M 912.453125 319.304688 C 899.21875 319.140625 886.253906 313.609375 874.929688 303.289062 L 879.058594 277.183594 C 886.648438 284.039062 898.144531 292.859375 912.027344 292.859375 C 922 292.859375 928.945312 288.296875 928.945312 276.539062 C 928.945312 266.421875 921.78125 262.828125 908.988281 258.257812 C 886 250.742188 877.757812 232.460938 877.757812 212.539062 C 877.757812 190.335938 889.253906 169.457031 914.632812 169.457031 C 930.035156 169.457031 943.484375 179.574219 946.460938 182.191406 L 942.335938 207.011719 C 934.140625 199.585938 924.796875 195.53125 915.234375 195.253906 C 905.046875 195.253906 900.054688 200.472656 900.054688 208.964844 C 900.054688 218.417969 906.566406 222.675781 916.527344 226.269531 C 941.257812 234.101562 951.234375 251.402344 951.234375 270.347656 C 951.285156 300.695312 936.53125 319.304688 912.453125 319.304688 Z M 912.453125 319.304688 "/>
<path style=" stroke:none;fill-rule:nonzero;fill:rgb(100%,100%,100%);fill-opacity:1;" d="M 85.101562 77.53125 L 114.59375 77.53125 L 114.59375 169.695312 L 85.101562 169.695312 Z M 85.101562 77.53125 "/>
<path style=" stroke:none;fill-rule:nonzero;fill:rgb(100%,100%,100%);fill-opacity:1;" d="M 85.101562 266.867188 L 114.59375 266.867188 L 114.59375 359.03125 L 85.101562 359.03125 Z M 85.101562 266.867188 "/>
<path style=" stroke:none;fill-rule:nonzero;fill:rgb(100%,79.215686%,0%);fill-opacity:1;" d="M 85.101562 196.601562 L 114.59375 196.601562 L 114.59375 240.085938 L 85.101562 240.085938 Z M 85.101562 196.601562 "/>
<path style=" stroke:none;fill-rule:nonzero;fill:rgb(100%,100%,100%);fill-opacity:1;" d="M 37.738281 153.316406 L 67.230469 153.316406 L 67.230469 459.703125 L 37.738281 459.703125 Z M 37.738281 153.316406 "/>
<path style=" stroke:none;fill-rule:nonzero;fill:rgb(100%,100%,100%);fill-opacity:1;" d="M 131.5 153.429688 L 160.984375 153.429688 L 160.984375 245.59375 L 131.5 245.59375 Z M 131.5 153.429688 "/>
<path style=" stroke:none;fill-rule:nonzero;fill:rgb(90.588235%,1.568627%,53.333333%);fill-opacity:1;" d="M 131.5 272.5 L 160.984375 272.5 L 160.984375 315.984375 L 131.5 315.984375 Z M 131.5 272.5 "/>
<path style=" stroke:none;fill-rule:nonzero;fill:rgb(100%,100%,100%);fill-opacity:1;" d="M 177.882812 53.515625 L 207.375 53.515625 L 207.375 359.902344 L 177.882812 359.902344 Z M 177.882812 53.515625 "/>
</g>
</svg>
